<?xml version="1.0" encoding="utf-8"?>
<svg xmlns="http://www.w3.org/2000/svg" width="66" height="54" viewBox="0 0 66 54" fill="none">
<path d="M63.0896 53H3.00289C1.9013 53 1 52.1 1 51V3C1 1.9 1.9013 1 3.00289 1H62.9895C64.0911 1 64.9924 1.9 64.9924 3V50.9C65.0925 52.1 64.1912 53 63.0896 53Z" stroke="#001E2B" stroke-miterlimit="10" stroke-linejoin="round"/>
<path d="M65 11H1V3.1C1 1.9 1.9 1 3.1 1H62.9C64.1 1 65 1.9 65 3.1V11Z" fill="#00ED64" stroke="#001E2B" stroke-miterlimit="10" stroke-linecap="round" stroke-linejoin="round"/>
<path d="M15 19V29M41 19V29M51 19V29M28 29C26.3 29 25 27.7 25 26V22C25 20.3 26.3 19 28 19C29.7 19 31 20.3 31 22V26C31 27.6 29.7 29 28 29Z" stroke="#001E2B" stroke-miterlimit="10" stroke-linejoin="round"/>
<path d="M15 35V45M41 35V45M51 35V45M28 45C26.3 45 25 43.7 25 42V38C25 36.3 26.3 35 28 35C29.7 35 31 36.3 31 38V42C31 43.6 29.7 45 28 45Z" stroke="#001E2B" stroke-miterlimit="10" stroke-linejoin="round"/>
</svg>