<?xml version="1.0" encoding="utf-8"?>
<svg xmlns="http://www.w3.org/2000/svg" width="66" height="66" viewBox="0 0 66 66" fill="none">
<path d="M33 65C50.6731 65 65 50.6731 65 33C65 15.3269 50.6731 1 33 1C15.3269 1 1 15.3269 1 33C1 50.6731 15.3269 65 33 65Z" stroke="#001E2B" stroke-miterlimit="10"/>
<path d="M48.0943 43.2857H33.9057C33.4025 43.2857 33 42.9133 33 42.4477V39.1887C33 38.7231 33.4025 38.3506 33.9057 38.3506H48.0943C48.5975 38.3506 49 38.7231 49 39.1887V42.4477C49 42.9133 48.5975 43.2857 48.0943 43.2857Z" fill="#00ED64"/>
<path d="M30.7774 31.9224L20.8834 21.7992C20.5866 21.4955 19.9929 21.4955 19.6961 21.7992L17.2226 24.33C16.9258 24.6337 16.9258 25.2411 17.2226 25.5448L23.9505 32.4286L17.2226 39.3123C16.9258 39.616 16.9258 40.2234 17.2226 40.5271L19.6961 43.0579C19.9929 43.3616 20.5866 43.3616 20.8834 43.0579L30.7774 32.9347C31.0742 32.8335 31.0742 32.2261 30.7774 31.9224Z" fill="#00ED64"/>
<path d="M48.0943 43.2857H33.9057C33.4025 43.2857 33 42.9133 33 42.4477V39.1887C33 38.7231 33.4025 38.3506 33.9057 38.3506H48.0943C48.5975 38.3506 49 38.7231 49 39.1887V42.4477C49 42.9133 48.5975 43.2857 48.0943 43.2857Z" stroke="#001E2B" stroke-miterlimit="10" stroke-linecap="round" stroke-linejoin="round"/>
<path d="M30.7774 31.9224L20.8834 21.7992C20.5866 21.4955 19.9929 21.4955 19.6961 21.7992L17.2226 24.33C16.9258 24.6337 16.9258 25.2411 17.2226 25.5448L23.9505 32.4286L17.2226 39.3123C16.9258 39.616 16.9258 40.2234 17.2226 40.5271L19.6961 43.0579C19.9929 43.3616 20.5866 43.3616 20.8834 43.0579L30.7774 32.9347C31.0742 32.8335 31.0742 32.2261 30.7774 31.9224Z" stroke="#001E2B" stroke-miterlimit="10" stroke-linecap="round" stroke-linejoin="round"/>
</svg>