<?xml version="1.0" encoding="utf-8"?>
<svg xmlns="http://www.w3.org/2000/svg" width="66" height="56" viewBox="0 0 66 56" fill="none">
<path d="M34.9637 34.1864L32.9751 33.4892C32.8757 33.4892 32.7763 33.3896 32.6769 33.3896C31.1854 32.6925 30.5889 30.9995 31.2849 29.5056L32.1797 27.6134C32.5774 26.8167 32.5774 25.9204 32.1797 25.1236C31.4837 23.6298 29.7934 23.0322 28.302 23.7294L26.5123 24.6257C26.4129 24.6257 26.3135 24.7253 26.214 24.7253C24.7226 25.2232 23.0323 24.4265 22.4358 22.9326L21.7398 20.9408C21.4415 20.1441 20.7455 19.447 19.9501 19.1482C18.4586 18.6502 16.7684 19.447 16.1718 20.9408L15.4758 22.9326C15.4758 23.0322 15.3764 23.1318 15.3764 23.2314C14.6804 24.7253 12.9901 25.3228 11.4987 24.6257L9.60955 23.7294C8.81413 23.331 7.91927 23.331 7.12385 23.7294C5.63243 24.4265 5.03586 26.1195 5.73186 27.6134L6.62671 29.5056C6.62671 29.6052 6.72614 29.7048 6.72614 29.8044C7.22328 31.2982 6.42785 32.9913 4.93643 33.4892L2.94787 34.1864C2.15245 34.4851 1.45645 35.0827 1.15816 35.979C0.661024 37.4729 1.35702 39.1659 2.94787 39.7634L4.93643 40.4606C5.03586 40.4606 5.13529 40.5602 5.23472 40.5602C6.72614 41.2573 7.32271 42.9503 6.62671 44.4442L5.73186 46.3364C5.33414 47.1331 5.33414 48.0295 5.73186 48.8262C6.42785 50.32 8.11813 50.9176 9.60955 50.2204L11.5981 49.3241C11.6975 49.2245 11.797 49.2245 11.8964 49.2245C13.3878 48.7266 15.0781 49.5233 15.5752 51.0172L16.2712 53.009C16.5695 53.8057 17.1661 54.5028 18.0609 54.8016C19.5524 55.3992 21.2426 54.6024 21.8392 53.009L22.5352 51.0172C22.5352 50.9176 22.6346 50.818 22.6346 50.7184C23.3306 49.2245 25.0209 48.627 26.5123 49.3241L28.4015 50.2204C29.1969 50.6188 30.0917 50.6188 30.8872 50.2204C32.3786 49.5233 32.9751 47.8303 32.2792 46.3364L31.3843 44.4442C31.3843 44.3446 31.2849 44.245 31.2849 44.1454C30.7877 42.6516 31.5832 40.9585 33.0746 40.4606L35.0631 39.7634C35.8586 39.4647 36.5546 38.8671 36.8528 37.9708C37.35 36.3774 36.5546 34.7839 34.9637 34.1864ZM19.0552 43.9462C15.1775 43.9462 12.0953 40.8589 12.0953 36.9749C12.0953 33.0909 15.1775 30.0036 19.0552 30.0036C22.9329 30.0036 26.0152 33.0909 26.0152 36.9749C26.0152 40.7593 22.9329 43.9462 19.0552 43.9462Z" stroke="#001E2B" stroke-miterlimit="10"/>
<path d="M63.3867 14.4814L61.5911 13.8828C61.4914 13.8828 61.3916 13.783 61.3916 13.783C60.0948 13.1844 59.4963 11.588 60.1945 10.291L60.9926 8.59488C61.2919 7.89648 61.2919 7.09831 60.9926 6.39991C60.3941 5.10289 58.798 4.50426 57.5011 5.20266L55.8053 6.00083C55.7055 6.00083 55.6058 6.1006 55.6058 6.1006C54.2092 6.59946 52.8126 5.90106 52.3138 4.50426L51.6155 2.70838C51.3163 2.00998 50.8175 1.41136 50.0194 1.11204C48.6229 0.712958 47.1265 1.41136 46.6277 2.70838L46.0292 4.50426C46.0292 4.60403 45.9295 4.7038 45.9295 4.80358C45.3309 6.1006 43.7348 6.69923 42.438 6.00083L40.7421 5.20266C40.0439 4.90335 39.2458 4.90335 38.5475 5.20266C37.2507 5.80129 36.6522 7.39763 37.2507 8.69465L38.0487 10.3908C38.0487 10.4905 38.1485 10.5903 38.1485 10.6901C38.6473 12.0869 37.949 13.4837 36.5524 13.9825L34.7568 14.5812C34.0585 14.8805 33.46 15.3793 33.1607 16.1775C32.6619 17.5743 33.3602 18.9711 34.7568 19.4699L36.5524 20.0686C36.6522 20.0686 36.7519 20.1683 36.7519 20.1683C38.0487 20.767 38.6473 22.3633 37.949 23.6603L37.1509 25.3564C36.8517 26.0548 36.8517 26.853 37.1509 27.5514C37.7495 28.8484 39.3456 29.4471 40.6424 28.7487L42.3382 27.9505C42.438 27.9505 42.5378 27.8507 42.5378 27.8507C43.9343 27.3519 45.3309 28.0503 45.8297 29.4471L46.4282 31.2429C46.7275 31.9413 47.2263 32.54 48.0243 32.8393C49.4209 33.3381 50.9172 32.6397 51.3163 31.2429L51.9148 29.4471C51.9148 29.3473 52.0146 29.2475 52.0146 29.2475C52.6131 27.9505 54.2092 27.3519 55.506 28.0503L57.2019 28.8484C57.9002 29.1477 58.6982 29.1477 59.3965 28.8484C60.6933 28.2498 61.2919 26.6535 60.6933 25.3564L59.8953 23.6603C59.8953 23.5606 59.7955 23.4608 59.7955 23.4608C59.2967 22.064 59.995 20.6672 61.3916 20.1683L63.1872 19.5697C63.8855 19.2704 64.484 18.7715 64.7833 17.9734C65.3819 16.4768 64.6836 14.9802 63.3867 14.4814ZM49.1216 22.9619C45.8297 22.9619 43.1363 20.2681 43.1363 16.9757C43.1363 13.6832 45.8297 10.9894 49.1216 10.9894C52.4136 10.9894 55.107 13.6832 55.107 16.9757C55.107 20.2681 52.4136 22.9619 49.1216 22.9619Z" fill="#00ED64" stroke="#001E2B" stroke-miterlimit="10"/>
</svg>