<svg width="605" height="485" viewBox="0 0 605 485" fill="none" xmlns="http://www.w3.org/2000/svg">
<g clip-path="url(#clip0_15688_50524)">
<g clip-path="url(#clip1_15688_50524)">
<path d="M481.92 0H360.3C344.283 0.0104012 328.922 6.36125 317.574 17.6643C306.226 28.9674 299.814 44.3034 299.74 60.32V182.42C299.744 190.364 298.178 198.231 295.133 205.568C292.087 212.905 287.622 219.568 281.994 225.174C276.365 230.78 269.685 235.219 262.336 238.235C254.987 241.251 247.114 242.786 239.17 242.75H117.56C84.13 242.75 57 270 57 303.07V425.17C56.9973 433.113 58.564 440.979 61.61 448.314C64.6561 455.65 69.1215 462.312 74.7497 467.917C80.378 473.522 87.0582 477.96 94.4066 480.976C101.755 483.991 109.627 485.526 117.57 485.49H239.17C255.189 485.482 270.552 479.133 281.903 467.829C293.253 456.526 299.666 441.188 299.74 425.17V303.07C299.736 295.127 301.301 287.262 304.346 279.926C307.391 272.59 311.856 265.929 317.483 260.323C323.111 254.718 329.79 250.28 337.138 247.264C344.486 244.249 352.357 242.714 360.3 242.75H481.92C497.939 242.737 513.301 236.384 524.65 225.08C536 213.775 542.413 198.438 542.49 182.42V60.32C542.49 27.24 515.35 0 481.92 0Z" fill="#F9EBFF"/>
<path d="M231 63.6897C231.208 63.432 231.442 63.1973 231.7 62.9897" stroke="#001E2B" stroke-miterlimit="10"/>
<path d="M233.1 61.5899C243.3 52.5899 259.9 52.3899 274.7 63.0899C293.7 78.1899 307.5 75.4899 315.2 66.8899" stroke="#001E2B" stroke-miterlimit="10" stroke-dasharray="1.98 1.98"/>
<path d="M315.8 66.0895C316 65.7895 316.2 65.5896 316.4 65.2896" stroke="#001E2B" stroke-miterlimit="10"/>
<path d="M237.2 79.2897C237.4 78.9897 237.6 78.7897 237.8 78.4897" stroke="#001E2B" stroke-miterlimit="10"/>
<path d="M239.2 77.09C246.7 69.99 259.8 69.59 272.6 78.59C289 92.49 307.6 93.09 314.1 86.79" stroke="#001E2B" stroke-miterlimit="10" stroke-dasharray="1.97 1.97"/>
<path d="M314.8 85.9997C315 85.6997 315.2 85.4997 315.4 85.1997" stroke="#001E2B" stroke-miterlimit="10"/>
<path d="M500.4 288.59H507.9" stroke="#001E2B" stroke-width="0.5" stroke-miterlimit="10"/>
<path d="M468.5 288.59H480.5" stroke="#001E2B" stroke-width="0.5" stroke-miterlimit="10"/>
<path d="M484.2 288.59H496.4" stroke="#001E2B" stroke-width="0.5" stroke-miterlimit="10"/>
<path d="M490.5 417.89L487.6 414.99V406.49L490.5 403.59H499.4C508.4 403.59 513 398.29 513 387.89V327.69C513 319.09 515.1 311.89 519.1 306.19C520.991 303.446 523.437 301.13 526.279 299.39C529.121 297.65 532.297 296.526 535.6 296.09H535.8V293.69H535.6C532.275 293.248 529.082 292.1 526.236 290.323C523.391 288.547 520.958 286.183 519.1 283.39C515 277.59 513 270.19 513 261.39V201.89C513 191.49 508.4 186.19 499.4 186.19H490.5L487.6 183.29V174.69L490.5 171.79H502.8C514 171.79 522.7 174.89 528.5 180.99C534.3 187.09 537.3 196.19 537.3 208.09V265.49C537.3 271.89 538.7 276.89 541.5 280.19C544.3 283.49 548.4 285.19 553.6 285.19H558.4L561.3 288.09V301.49L558.4 304.39H553.6C548.4 304.39 544.3 306.09 541.5 309.39C538.7 312.69 537.3 317.69 537.3 324.09V381.49C537.3 393.29 534.4 402.49 528.5 408.59C522.6 414.69 514.1 417.79 502.8 417.79H490.5V417.89Z" fill="#001F2C"/>
<path d="M502.8 171.49C514.2 171.49 522.8 174.59 528.6 180.79C534.5 186.99 537.4 196.09 537.4 207.99V265.39C537.4 271.79 538.8 276.59 541.6 279.89C544.4 283.19 548.4 284.89 553.5 284.89H558.5L561.6 287.99V301.59L558.5 304.69H553.5C548.3 304.69 544.4 306.29 541.6 309.69C538.8 313.09 537.4 317.79 537.4 324.19V381.59C537.4 393.59 534.5 402.69 528.6 408.79C522.7 414.89 514.1 418.09 502.8 418.09H490.4L487.3 414.99V406.29L490.4 403.19H499.4C508.3 403.19 512.7 397.99 512.7 387.69V327.49C512.7 318.79 514.8 311.59 518.9 305.79C520.802 303.003 523.275 300.653 526.154 298.895C529.033 297.136 532.253 296.01 535.6 295.59V293.69C532.235 293.251 529.002 292.096 526.122 290.302C523.241 288.508 520.778 286.116 518.9 283.29C514.8 277.39 512.7 269.99 512.7 261.19V201.69C512.7 191.39 508.3 186.19 499.4 186.19H490.4L487.3 183.09V174.39L490.4 171.29H502.8V171.49Z" fill="#001F2C"/>
<path d="M502.8 172C514 172 522.5 175.1 528.3 181.1C534.1 187.1 537 196.2 537 208V265.4C537 271.9 538.4 276.9 541.3 280.3C544.2 283.7 548.3 285.4 553.6 285.4H558.3L561.1 288.2V301.4L558.3 304.2H553.6C548.267 304.2 544.167 305.9 541.3 309.3C538.4 312.7 537 317.7 537 324.2V381.6C537 393.4 534.1 402.4 528.3 408.5C522.5 414.6 514 417.6 502.8 417.6H490.6L487.8 414.8V406.5L490.6 403.7H499.4C508.6 403.7 513.2 398.3 513.2 387.7V327.5C513.2 319 515.3 311.8 519.3 306.1C521.182 303.378 523.614 301.082 526.439 299.359C529.264 297.637 532.419 296.526 535.7 296.1L536.1 296V293.4L535.7 293.3C532.398 292.864 529.228 291.728 526.4 289.969C523.572 288.21 521.151 285.868 519.3 283.1C515.3 277.3 513.2 270 513.2 261.3V201.8C513.2 191.2 508.6 185.8 499.4 185.8H490.6L487.8 183V174.7L490.6 171.9H502.8V172ZM502.8 171.5H490.4L487.3 174.6V183.3L490.4 186.4H499.4C508.3 186.4 512.7 191.6 512.7 201.9V261.4C512.7 270.3 514.8 277.7 518.9 283.5C520.794 286.312 523.26 288.693 526.138 290.485C529.016 292.277 532.241 293.441 535.6 293.9V295.8C532.253 296.22 529.033 297.347 526.154 299.105C523.275 300.864 520.802 303.214 518.9 306C514.8 311.8 512.7 319 512.7 327.7V387.9C512.7 398.2 508.3 403.4 499.4 403.4H490.4L487.3 406.5V415.2L490.4 418.3H502.8C514.2 418.3 522.8 415.2 528.6 409C534.5 402.8 537.4 393.7 537.4 381.8V324.4C537.4 318 538.8 313.1 541.6 309.9C544.4 306.7 548.4 304.9 553.5 304.9H558.5L561.6 301.8V288.2L558.5 285.1H553.5C548.3 285.1 544.4 283.4 541.6 280.1C538.8 276.8 537.4 271.9 537.4 265.6V208.2C537.4 196.2 534.5 187.2 528.6 181C522.7 174.6 514.1 171.5 502.8 171.5V171.5Z" fill="#001F2C"/>
<path d="M490.5 404.89L487.6 401.99V393.49L490.5 390.59H499.4C508.4 390.59 513 385.29 513 374.89V314.69C513 306.09 515.1 298.89 519.1 293.19C520.991 290.446 523.437 288.13 526.279 286.39C529.121 284.65 532.297 283.526 535.6 283.09H535.8V280.69H535.6C532.275 280.248 529.082 279.1 526.236 277.323C523.391 275.547 520.958 273.183 519.1 270.39C515 264.59 513 257.19 513 248.39V188.89C513 178.49 508.4 173.19 499.4 173.19H490.5L487.6 170.29V161.69L490.5 158.79H502.8C514 158.79 522.7 161.89 528.5 167.99C534.3 174.09 537.3 183.19 537.3 195.09V252.49C537.3 258.89 538.7 263.89 541.5 267.19C544.3 270.49 548.4 272.19 553.6 272.19H558.4L561.3 275.09V288.49L558.4 291.39H553.6C548.4 291.39 544.3 293.09 541.5 296.39C538.7 299.69 537.3 304.69 537.3 311.09V368.49C537.3 380.29 534.4 389.49 528.5 395.59C522.6 401.69 514.1 404.79 502.8 404.79H490.5V404.89Z" fill="white"/>
<path d="M502.8 158.49C514.2 158.49 522.8 161.59 528.6 167.79C534.5 173.99 537.4 183.09 537.4 194.99V252.39C537.4 258.79 538.8 263.59 541.6 266.89C544.4 270.19 548.4 271.89 553.5 271.89H558.5L561.6 274.99V288.59L558.5 291.69H553.5C548.3 291.69 544.4 293.29 541.6 296.69C538.8 300.09 537.4 304.79 537.4 311.19V368.59C537.4 380.59 534.5 389.69 528.6 395.79C522.7 401.89 514.1 405.09 502.8 405.09H490.4L487.3 401.99V393.29L490.4 390.19H499.4C508.3 390.19 512.7 384.99 512.7 374.69V314.49C512.7 305.79 514.8 298.59 518.9 292.79C520.802 290.003 523.275 287.653 526.154 285.895C529.033 284.136 532.253 283.01 535.6 282.59V280.69C532.235 280.251 529.002 279.096 526.122 277.302C523.241 275.508 520.778 273.116 518.9 270.29C514.8 264.39 512.7 256.99 512.7 248.19V188.69C512.7 178.39 508.3 173.19 499.4 173.19H490.4L487.3 170.09V161.39L490.4 158.29H502.8V158.49Z" fill="#B1FF05"/>
<path d="M502.8 159C514 159 522.5 162.1 528.3 168.1C534.1 174.1 537 183.2 537 195V252.4C537 258.9 538.4 263.9 541.3 267.3C544.2 270.7 548.3 272.4 553.6 272.4H558.3L561.1 275.2V288.4L558.3 291.2H553.6C548.267 291.2 544.167 292.9 541.3 296.3C538.4 299.7 537 304.7 537 311.2V368.6C537 380.4 534.1 389.4 528.3 395.5C522.5 401.6 514 404.6 502.8 404.6H490.6L487.8 401.8V393.5L490.6 390.7H499.4C508.6 390.7 513.2 385.3 513.2 374.7V314.5C513.2 306 515.3 298.8 519.3 293.1C521.182 290.378 523.614 288.082 526.439 286.359C529.264 284.637 532.419 283.526 535.7 283.1L536.1 283V280.4L535.7 280.3C532.398 279.864 529.228 278.728 526.4 276.969C523.572 275.21 521.151 272.868 519.3 270.1C515.3 264.3 513.2 257 513.2 248.3V188.8C513.2 178.2 508.6 172.8 499.4 172.8H490.6L487.8 170V161.7L490.6 158.9H502.8V159ZM502.8 158.5H490.4L487.3 161.6V170.3L490.4 173.4H499.4C508.3 173.4 512.7 178.6 512.7 188.9V248.4C512.7 257.3 514.8 264.7 518.9 270.5C520.794 273.312 523.26 275.693 526.138 277.485C529.016 279.277 532.241 280.441 535.6 280.9V282.8C532.253 283.22 529.033 284.347 526.154 286.105C523.275 287.864 520.802 290.214 518.9 293C514.8 298.8 512.7 306 512.7 314.7V374.9C512.7 385.2 508.3 390.4 499.4 390.4H490.4L487.3 393.5V402.2L490.4 405.3H502.8C514.2 405.3 522.8 402.2 528.6 396C534.5 389.8 537.4 380.7 537.4 368.8V311.4C537.4 305 538.8 300.1 541.6 296.9C544.4 293.7 548.4 291.9 553.5 291.9H558.5L561.6 288.8V275.2L558.5 272.1H553.5C548.3 272.1 544.4 270.4 541.6 267.1C538.8 263.8 537.4 258.9 537.4 252.6V195.2C537.4 183.2 534.5 174.2 528.6 168C522.7 161.6 514.1 158.5 502.8 158.5V158.5Z" fill="black"/>
<path d="M101.8 328.29C90.5999 328.29 81.8999 325.19 76.0999 319.09C70.2999 312.99 67.2999 303.89 67.2999 291.99V234.59C67.2999 228.19 65.9 223.19 63.1 219.89C60.3 216.59 56.2 214.89 51 214.89H46.2L43.2 212V198.6L46.2 195.7H51C56.2 195.7 60.3 194 63.1 190.7C65.9 187.4 67.2999 182.4 67.2999 176V118.6C67.2999 106.8 70.1999 97.5998 76.0999 91.4998C81.9999 85.3998 90.4999 82.2998 101.8 82.2998H114.1L117 85.1998V93.6998L114.1 96.5998H105.2C96.2 96.5998 91.5999 101.9 91.5999 112.3V172.5C91.5999 181.1 89.5 188.3 85.5 194C83.6077 196.742 81.1616 199.056 78.3196 200.794C75.4776 202.532 72.3027 203.655 69 204.09H68.7999V206.39H69C72.3253 206.832 75.5178 207.979 78.3635 209.756C81.2092 211.532 83.6424 213.896 85.5 216.69C89.6 222.49 91.5999 229.89 91.5999 238.69V298.19C91.5999 308.59 96.2 313.89 105.2 313.89H114.1L117 316.79V325.29L114.1 328.19H101.8V328.29Z" fill="#001F2C"/>
<path d="M101.8 328.49C90.4 328.49 81.8 325.39 76 319.19C70.1 312.99 67.2 303.89 67.2 291.99V234.59C67.2 228.19 65.8 223.39 63 220.09C60.2 216.79 56.2 215.09 51.1 215.09H46.1L43 212V198.4L46.1 195.3H51.1C56.3 195.3 60.2 193.7 63 190.3C65.8 186.9 67.2 182.2 67.2 175.8V118.4C67.2 106.4 70.1 97.2999 76 91.1999C81.9 85.0999 90.5 81.8999 101.8 81.8999H114.2L117.3 84.9999V93.6999L114.2 96.7999H105.2C96.3 96.7999 91.9 102 91.9 112.3V172.5C91.9 181.2 89.8 188.4 85.7 194.2C83.7969 196.984 81.3239 199.333 78.4449 201.089C75.5659 202.846 72.3465 203.971 69 204.39V206.29C72.3654 206.728 75.5976 207.884 78.4785 209.678C81.3594 211.472 83.822 213.863 85.7 216.69C89.8 222.59 91.9 229.99 91.9 238.79V298.29C91.9 308.59 96.3 313.79 105.2 313.79H114.2L117.3 316.89V325.59L114.2 328.69H101.8V328.49Z" fill="#001F2C"/>
<path d="M114 82.3899L116.8 85.1899V93.4899L114 96.2899H105.2C96 96.2899 91.4 101.69 91.4 112.29V172.49C91.4 180.99 89.3 188.19 85.3 193.89C83.4184 196.612 80.9865 198.908 78.1614 200.631C75.3364 202.353 72.1812 203.464 68.9 203.89L68.5 203.99V206.69L68.9 206.79C72.2025 207.227 75.3737 208.364 78.2018 210.125C81.0299 211.886 83.4498 214.23 85.3 217C89.3 222.8 91.4 230.1 91.4 238.8V298.3C91.4 308.9 96 314.3 105.2 314.3H114L116.8 317.1V325.4L114 328.2H101.8C90.6 328.2 82.1 325.1 76.3 319.1C70.5 313.1 67.6 304 67.6 292.2V234.8C67.6 228.3 66.2 223.3 63.3 219.9C60.4 216.5 56.3 214.8 51 214.8H46.3L43.5 212V198.8L46.3 196H51C56.3333 196 60.4333 194.3 63.3 190.9C66.2 187.5 67.6 182.5 67.6 176V118.6C67.6 106.8 70.5 97.7999 76.3 91.6999C82.1 85.5999 90.6 82.5999 101.8 82.5999H114V82.3899ZM114.2 81.8999H101.8C90.4 81.8999 81.8 84.9999 76 91.1999C70.1 97.3999 67.2 106.5 67.2 118.4V175.8C67.2 182.2 65.8 187.1 63 190.3C60.2 193.5 56.2 195.3 51.1 195.3H46.1L43 198.39V212L46.1 215.1H51.1C56.3 215.1 60.2 216.8 63 220.1C65.8 223.4 67.2 228.3 67.2 234.6V292C67.2 304 70.1 313 76 319.2C81.9 325.4 90.5 328.5 101.8 328.5H114.2L117.3 325.4V316.7L114.2 313.6H105.2C96.3 313.6 91.9 308.4 91.9 298.1V238.6C91.9 229.7 89.8 222.3 85.7 216.5C83.8073 213.686 81.341 211.304 78.463 209.509C75.5849 207.715 72.3601 206.55 69 206.09V204.19C72.3465 203.771 75.5659 202.646 78.4449 200.889C81.3239 199.133 83.7969 196.784 85.7 194C89.8 188.2 91.9 181 91.9 172.3V112.1C91.9 101.8 96.3 96.5999 105.2 96.5999H114.2L117.3 93.6999V84.9999L114.2 81.8999V81.8999Z" fill="#001F2C"/>
<path d="M101.8 315.29C90.5999 315.29 81.8999 312.19 76.0999 306.09C70.2999 299.99 67.2999 290.89 67.2999 278.99V221.59C67.2999 215.19 65.9 210.19 63.1 206.89C60.3 203.59 56.2 201.89 51 201.89H46.2L43.2 199V185.6L46.2 182.7H51C56.2 182.7 60.3 181 63.1 177.7C65.9 174.4 67.2999 169.4 67.2999 163V105.4C67.2999 93.5996 70.1999 84.3996 76.0999 78.2996C81.9999 72.1996 90.4999 69.0996 101.8 69.0996H114.1L117 71.9996V80.4996L114.1 83.3996H105.2C96.2 83.3996 91.5999 88.6996 91.5999 99.0996V159.3C91.5999 167.9 89.5 175.1 85.5 180.8C83.6077 183.541 81.1616 185.856 78.3196 187.594C75.4776 189.332 72.3027 190.455 69 190.89H68.7999V193.19H69C72.3253 193.632 75.5178 194.779 78.3635 196.556C81.2092 198.332 83.6424 200.696 85.5 203.49C89.6 209.29 91.5999 216.69 91.5999 225.49V285C91.5999 295.4 96.2 300.7 105.2 300.7H114.1L117 303.6V312.1L114.1 315H101.8V315.29Z" fill="white"/>
<path d="M101.8 315.49C90.4 315.49 81.8 312.39 76 306.19C70.1 299.99 67.2 290.89 67.2 278.99V221.59C67.2 215.19 65.8 210.39 63 207.09C60.2 203.79 56.2 202.09 51.1 202.09H46.1L43 199V185.4L46.1 182.3H51.1C56.3 182.3 60.2 180.7 63 177.3C65.8 173.9 67.2 169.2 67.2 162.8V105.4C67.2 93.3999 70.1 84.2999 76 78.1999C81.9 72.0999 90.5 68.8999 101.8 68.8999H114.2L117.3 71.9999V80.6999L114.2 83.7999H105.2C96.3 83.7999 91.9 88.9999 91.9 99.2999V159.5C91.9 168.2 89.8 175.4 85.7 181.2C83.7969 183.984 81.3239 186.333 78.4449 188.089C75.5659 189.846 72.3465 190.971 69 191.39V193.29C72.3654 193.728 75.5976 194.884 78.4785 196.678C81.3594 198.472 83.822 200.863 85.7 203.69C89.8 209.59 91.9 216.99 91.9 225.79V285.29C91.9 295.59 96.3 300.79 105.2 300.79H114.2L117.3 303.89V312.59L114.2 315.69H101.8V315.49Z" fill="#B1FF05"/>
<path d="M114 69.3899L116.8 72.1899V80.4899L114 83.2899H105.2C96 83.2899 91.4 88.6899 91.4 99.2899V159.49C91.4 167.99 89.3 175.19 85.3 180.89C83.4184 183.612 80.9865 185.908 78.1614 187.631C75.3364 189.353 72.1812 190.464 68.9 190.89L68.5 190.99V193.69L68.9 193.79C72.2025 194.227 75.3737 195.364 78.2018 197.125C81.0299 198.886 83.4498 201.23 85.3 204C89.3 209.8 91.4 217.1 91.4 225.8V285.3C91.4 295.9 96 301.3 105.2 301.3H114L116.8 304.1V312.4L114 315.2H101.8C90.6 315.2 82.1 312.1 76.3 306.1C70.5 300.1 67.6 291 67.6 279.2V221.8C67.6 215.3 66.2 210.3 63.3 206.9C60.4 203.5 56.3 201.8 51 201.8H46.3L43.5 199V185.8L46.3 183H51C56.3333 183 60.4333 181.3 63.3 177.9C66.2 174.5 67.6 169.5 67.6 163V105.6C67.6 93.7999 70.5 84.7999 76.3 78.6999C82.1 72.5999 90.6 69.5999 101.8 69.5999H114V69.3899ZM114.2 68.8999H101.8C90.4 68.8999 81.8 71.9999 76 78.1999C70.1 84.3999 67.2 93.4999 67.2 105.4V162.8C67.2 169.2 65.8 174.1 63 177.3C60.2 180.5 56.2 182.3 51.1 182.3H46.1L43 185.39V199L46.1 202.1H51.1C56.3 202.1 60.2 203.8 63 207.1C65.8 210.4 67.2 215.3 67.2 221.6V279C67.2 291 70.1 300 76 306.2C81.9 312.4 90.5 315.5 101.8 315.5H114.2L117.3 312.4V303.7L114.2 300.6H105.2C96.3 300.6 91.9 295.4 91.9 285.1V225.6C91.9 216.7 89.8 209.3 85.7 203.5C83.8073 200.686 81.341 198.304 78.463 196.509C75.5849 194.715 72.3601 193.55 69 193.09V191.19C72.3465 190.771 75.5659 189.646 78.4449 187.889C81.3239 186.133 83.7969 183.784 85.7 181C89.8 175.2 91.9 168 91.9 159.3V99.1899C91.9 88.8899 96.3 83.6899 105.2 83.6899H114.2L117.3 80.6899V71.9999L114.2 68.8999V68.8999Z" fill="black"/>
<path d="M175 86.7897H164.4L158.7 76.2897L169.1 75.9897L175 86.7897Z" fill="#00222F" stroke="#001E2B" stroke-width="0.5" stroke-linejoin="round"/>
<path d="M175 86.7896L180.8 77.8896L175.1 67.3896L169.1 75.9896L175 86.7896Z" fill="white" stroke="#001E2B" stroke-width="0.5" stroke-linejoin="round"/>
<path d="M164.7 67.8896L158.7 76.2896L169.1 75.9896L175.1 67.3896L164.7 67.8896Z" fill="white" stroke="#001E2B" stroke-width="0.5" stroke-linejoin="round"/>
<path d="M136.2 195.99H139.9" stroke="#001E2B" stroke-width="0.5" stroke-miterlimit="10"/>
<path d="M96.8999 195.99H104.4" stroke="#001E2B" stroke-width="0.5" stroke-miterlimit="10"/>
<path d="M107.7 195.99H132.2" stroke="#001E2B" stroke-width="0.5" stroke-miterlimit="10"/>
<path d="M438 136.19H166.6C162.173 136.182 157.93 134.42 154.8 131.29C151.67 128.16 149.908 123.917 149.9 119.49V114.69H454.6V119.49C454.608 121.677 454.185 123.844 453.354 125.867C452.524 127.89 451.303 129.73 449.762 131.281C448.22 132.832 446.388 134.064 444.369 134.906C442.351 135.748 440.187 136.185 438 136.19V136.19Z" fill="#001E2B" stroke="#001E2B" stroke-width="0.5" stroke-miterlimit="10"/>
<path d="M440.2 129.09H164.4C160.587 129.071 156.935 127.548 154.238 124.852C151.541 122.155 150.018 118.503 150 114.69V114.69C150.018 110.876 151.541 107.224 154.238 104.528C156.935 101.831 160.587 100.308 164.4 100.29H440.2C444.013 100.308 447.665 101.831 450.362 104.528C453.059 107.224 454.582 110.876 454.6 114.69V114.69C454.6 118.509 453.083 122.171 450.382 124.872C447.682 127.572 444.019 129.09 440.2 129.09Z" fill="#A6FFEC" stroke="#231F20" stroke-width="0.5" stroke-miterlimit="10"/>
<path d="M438 186.89H166.6C162.173 186.882 157.93 185.12 154.8 181.99C151.67 178.859 149.908 174.616 149.9 170.19V165.39H454.6V170.19C454.608 172.377 454.185 174.544 453.354 176.567C452.524 178.59 451.303 180.43 449.762 181.981C448.22 183.532 446.388 184.763 444.369 185.606C442.351 186.448 440.187 186.884 438 186.89V186.89Z" fill="#001E2B" stroke="#001E2B" stroke-width="0.5" stroke-miterlimit="10"/>
<path d="M440.2 179.89H164.4C160.587 179.871 156.935 178.348 154.238 175.652C151.541 172.955 150.018 169.303 150 165.49V165.49C150.018 161.676 151.541 158.024 154.238 155.328C156.935 152.631 160.587 151.108 164.4 151.09H440.2C444.013 151.108 447.665 152.631 450.362 155.328C453.059 158.024 454.582 161.676 454.6 165.49V165.49C454.6 169.309 453.083 172.972 450.382 175.672C447.682 178.373 444.019 179.89 440.2 179.89Z" fill="#00D2FF" stroke="#231F20" stroke-width="0.5" stroke-miterlimit="10"/>
<path d="M293.3 237.69H166.6C162.175 237.682 157.933 235.921 154.803 232.793C151.674 229.665 149.91 225.425 149.9 221V216.2H309.9V221C309.895 225.409 308.147 229.638 305.038 232.764C301.928 235.89 297.709 237.661 293.3 237.69V237.69Z" fill="#001E2B" stroke="#001E2B" stroke-width="0.5" stroke-miterlimit="10"/>
<path d="M295.5 230.69H164.4C160.587 230.671 156.935 229.148 154.238 226.452C151.541 223.755 150.018 220.103 150 216.29V216.29C150.018 212.476 151.541 208.824 154.238 206.128C156.935 203.431 160.587 201.908 164.4 201.89H295.5C299.313 201.908 302.965 203.431 305.662 206.128C308.359 208.824 309.882 212.476 309.9 216.29V216.29C309.882 220.103 308.359 223.755 305.662 226.452C302.965 229.148 299.313 230.671 295.5 230.69V230.69Z" fill="#A6FFEC" stroke="#231F20" stroke-width="0.5" stroke-miterlimit="10"/>
<path d="M438 237.69H333.6C329.175 237.682 324.933 235.921 321.803 232.793C318.674 229.665 316.91 225.425 316.9 221V216.2H454.6V221C454.606 223.186 454.182 225.352 453.351 227.374C452.521 229.396 451.3 231.234 449.758 232.784C448.216 234.334 446.385 235.565 444.367 236.407C442.35 237.249 440.186 237.684 438 237.69V237.69Z" fill="#001E2B" stroke="#001E2B" stroke-width="0.5" stroke-miterlimit="10"/>
<path d="M440.2 230.69H331.3C327.486 230.671 323.834 229.148 321.138 226.452C318.441 223.755 316.918 220.103 316.9 216.29V216.29C316.918 212.476 318.441 208.824 321.138 206.128C323.834 203.431 327.486 201.908 331.3 201.89H440.2C444.013 201.908 447.665 203.431 450.362 206.128C453.058 208.824 454.582 212.476 454.6 216.29V216.29C454.6 218.181 454.227 220.053 453.504 221.8C452.78 223.547 451.719 225.135 450.382 226.472C449.045 227.809 447.458 228.87 445.711 229.594C443.963 230.317 442.091 230.69 440.2 230.69V230.69Z" fill="#A6FFEC" stroke="#231F20" stroke-width="0.5" stroke-miterlimit="10"/>
<path d="M311.3 339.19H438C442.427 339.182 446.67 337.42 449.8 334.29C452.93 331.16 454.692 326.917 454.7 322.49V317.69H294.7V322.49C294.702 326.901 296.449 331.132 299.559 334.261C302.668 337.389 306.889 339.161 311.3 339.19V339.19Z" fill="#001E2B" stroke="#001E2B" stroke-width="0.5" stroke-miterlimit="10"/>
<path d="M309.1 332.19H440.2C444.013 332.171 447.665 330.648 450.362 327.952C453.058 325.255 454.582 321.603 454.6 317.79V317.79C454.582 313.976 453.058 310.324 450.362 307.628C447.665 304.931 444.013 303.408 440.2 303.39H309.1C305.287 303.408 301.635 304.931 298.938 307.628C296.241 310.324 294.718 313.976 294.7 317.79V317.79C294.718 321.603 296.241 325.255 298.938 327.952C301.635 330.648 305.287 332.171 309.1 332.19V332.19Z" fill="#A6FFEC" stroke="#231F20" stroke-width="0.5" stroke-miterlimit="10"/>
<path d="M166.6 339.19H271C275.427 339.182 279.67 337.42 282.8 334.29C285.93 331.16 287.692 326.917 287.7 322.49V317.69H150V322.49C149.992 324.677 150.415 326.844 151.246 328.867C152.076 330.89 153.297 332.73 154.838 334.281C156.38 335.832 158.213 337.064 160.231 337.906C162.249 338.748 164.413 339.185 166.6 339.19V339.19Z" fill="#001E2B" stroke="#001E2B" stroke-width="0.5" stroke-miterlimit="10"/>
<path d="M164.4 332.19H273.3C277.113 332.171 280.765 330.648 283.462 327.952C286.159 325.255 287.682 321.603 287.7 317.79V317.79C287.682 313.976 286.159 310.324 283.462 307.628C280.765 304.931 277.113 303.408 273.3 303.39H164.4C160.587 303.408 156.935 304.931 154.238 307.628C151.541 310.324 150.018 313.976 150 317.79V317.79C150 321.609 151.517 325.271 154.218 327.972C156.918 330.673 160.581 332.19 164.4 332.19V332.19Z" fill="#A6FFEC" stroke="#231F20" stroke-width="0.5" stroke-miterlimit="10"/>
<path d="M438 288.39H166.6C162.173 288.382 157.93 286.62 154.8 283.49C151.67 280.359 149.908 276.116 149.9 271.69V266.89H454.6V271.69C454.616 273.879 454.198 276.049 453.371 278.076C452.543 280.103 451.323 281.946 449.779 283.498C448.236 285.051 446.401 286.282 444.379 287.122C442.357 287.961 440.189 288.392 438 288.39V288.39Z" fill="#001E2B" stroke="#001E2B" stroke-width="0.5" stroke-miterlimit="10"/>
<path d="M440.2 281.39H164.4C160.588 281.371 156.938 279.85 154.242 277.155C151.545 274.461 150.021 270.811 150 267V267C150.018 263.186 151.541 259.534 154.238 256.838C156.935 254.141 160.587 252.618 164.4 252.6H440.2C444.013 252.618 447.665 254.141 450.362 256.838C453.059 259.534 454.582 263.186 454.6 267V267C454.597 270.817 453.079 274.477 450.379 277.175C447.679 279.874 444.017 281.39 440.2 281.39V281.39Z" fill="#00D2FF" stroke="#231F20" stroke-width="0.5" stroke-miterlimit="10"/>
<path d="M383.5 390H166.6C162.173 389.992 157.93 388.23 154.8 385.1C151.67 381.97 149.908 377.727 149.9 373.3V368.5H400.1V373.3C400.097 377.711 398.351 381.942 395.241 385.071C392.131 388.199 387.911 389.971 383.5 390V390Z" fill="#001E2B" stroke="#001E2B" stroke-width="0.5" stroke-miterlimit="10"/>
<path d="M385.7 383H164.4C160.587 382.981 156.935 381.458 154.238 378.762C151.541 376.065 150.018 372.413 150 368.6V368.6C150.018 364.786 151.541 361.134 154.238 358.438C156.935 355.741 160.587 354.218 164.4 354.2H385.7C389.513 354.218 393.165 355.741 395.862 358.438C398.559 361.134 400.082 364.786 400.1 368.6V368.6C400.082 372.413 398.559 376.065 395.862 378.762C393.165 381.458 389.513 382.981 385.7 383V383Z" fill="#00D2FF" stroke="#231F20" stroke-width="0.5" stroke-miterlimit="10"/>
<path d="M422.2 338.29C430.22 346.314 434.726 357.195 434.726 368.54C434.726 379.885 430.22 390.766 422.2 398.79" stroke="#001E2B" stroke-width="0.5" stroke-miterlimit="10" stroke-dasharray="2 2"/>
<path d="M411.7 393.39L416.9 402.39L422.1 411.29H411.7H401.4L406.6 402.39L411.7 393.39Z" fill="white" stroke="#001E2B" stroke-width="0.5" stroke-miterlimit="10"/>
<path d="M411.7 404.99L401.4 411.29H422.1L411.7 404.99Z" fill="#001E2B"/>
<path d="M411.7 404.99V393.39" stroke="#001E2B" stroke-width="0.5" stroke-miterlimit="10"/>
<path d="M258 129.09H386.1L378.9 100.29H250.8L258 129.09Z" fill="#001E2B" stroke="#001E2B" stroke-miterlimit="10"/>
<path d="M263.5 151.09L268.6 171.79C268.665 172.053 268.782 172.3 268.943 172.517C269.104 172.735 269.307 172.919 269.539 173.058C269.771 173.197 270.029 173.29 270.296 173.329C270.564 173.369 270.837 173.356 271.1 173.29L360.1 151.09H263.5Z" fill="#001E2B" stroke="#001E2B" stroke-miterlimit="10"/>
<path d="M167.8 354.59C186.467 354.59 201.6 339.457 201.6 320.79C201.6 302.123 186.467 286.99 167.8 286.99C149.133 286.99 134 302.123 134 320.79C134 339.457 149.133 354.59 167.8 354.59Z" fill="white"/>
<path d="M167.8 354.59C186.467 354.59 201.6 339.457 201.6 320.79C201.6 302.123 186.467 286.99 167.8 286.99C149.133 286.99 134 302.123 134 320.79C134 339.457 149.133 354.59 167.8 354.59Z" stroke="#00222F" stroke-miterlimit="10"/>
<path d="M148.5 324.19V316.09H201.3C202.543 324.525 200.503 333.115 195.6 340.09C194.335 341.865 192.93 343.537 191.4 345.09H169.4C163.865 345.064 158.564 342.853 154.651 338.939C150.737 335.026 148.526 329.725 148.5 324.19V324.19Z" fill="#001E2B"/>
<path d="M148.5 324.19V316.09H201.3C202.543 324.525 200.503 333.115 195.6 340.09C194.335 341.865 192.93 343.537 191.4 345.09H169.4C163.865 345.064 158.564 342.853 154.651 338.939C150.737 335.026 148.526 329.725 148.5 324.19V324.19Z" stroke="#001E2B" stroke-miterlimit="10"/>
<path d="M148.5 316.09C148.524 310.925 150.586 305.979 154.238 302.327C157.889 298.676 162.836 296.614 168 296.59H191.3C196.38 301.555 199.777 307.987 201.015 314.981C202.252 321.976 201.268 329.183 198.2 335.59H168C162.836 335.566 157.889 333.504 154.238 329.852C150.586 326.2 148.524 321.254 148.5 316.09V316.09Z" fill="#A6FFEC"/>
<path d="M148.5 316.09C148.524 310.925 150.586 305.979 154.238 302.327C157.889 298.676 162.836 296.614 168 296.59H191.3C196.38 301.555 199.777 307.987 201.015 314.981C202.252 321.976 201.268 329.183 198.2 335.59H168C162.836 335.566 157.889 333.504 154.238 329.852C150.586 326.2 148.524 321.254 148.5 316.09V316.09Z" stroke="#231F20" stroke-miterlimit="10"/>
<path d="M90.6 426.19C90.6 426.19 89.4 427.99 93.9 431.09C98.4 434.19 99.7 432.29 99.7 432.29L147.8 360.49C147.8 360.49 148.4 358.49 144.4 355.79C140.4 353.09 138.7 354.49 138.7 354.49L90.6 426.19Z" fill="#00C954" stroke="#00222F" stroke-width="0.5" stroke-miterlimit="10"/>
<path d="M137.3 355.39C137.3 355.39 136.8 357.59 141.1 360.59C145.4 363.59 147.3 362.29 147.3 362.29L152.8 354.39C150.903 353.64 149.119 352.631 147.5 351.39C145.772 350.297 144.192 348.987 142.8 347.49L137.3 355.39Z" fill="#00C954" stroke="#00222F" stroke-width="0.5" stroke-miterlimit="10"/>
<path d="M189.3 293.79C195.452 298.042 200.204 304.023 202.956 310.976C205.709 317.93 206.337 325.543 204.763 332.854C203.188 340.164 199.481 346.844 194.11 352.047C188.739 357.251 181.946 360.745 174.589 362.088C167.232 363.43 159.643 362.561 152.78 359.591C145.917 356.62 140.089 351.68 136.034 345.397C131.978 339.114 129.877 331.77 129.995 324.292C130.114 316.815 132.447 309.541 136.7 303.39C142.409 295.151 151.154 289.513 161.015 287.713C170.876 285.913 181.048 288.099 189.3 293.79V293.79ZM140 305.59C136.191 311.098 134.102 317.613 133.995 324.309C133.889 331.006 135.771 337.583 139.404 343.21C143.036 348.837 148.255 353.26 154.401 355.92C160.548 358.581 167.345 359.358 173.933 358.155C180.522 356.952 186.605 353.823 191.415 349.162C196.224 344.501 199.544 338.519 200.953 331.972C202.362 325.424 201.798 318.606 199.333 312.38C196.867 306.153 192.61 300.797 187.1 296.99C179.713 291.888 170.602 289.928 161.77 291.541C152.938 293.154 145.108 298.207 140 305.59Z" fill="#001F2C"/>
<path d="M189.3 293.79C195.452 298.042 200.204 304.023 202.956 310.976C205.709 317.93 206.337 325.543 204.763 332.854C203.188 340.164 199.481 346.844 194.11 352.047C188.739 357.251 181.946 360.745 174.589 362.088C167.232 363.43 159.643 362.561 152.78 359.591C145.917 356.62 140.089 351.68 136.034 345.397C131.978 339.114 129.877 331.77 129.995 324.292C130.114 316.815 132.447 309.541 136.7 303.39C142.409 295.151 151.154 289.513 161.015 287.713C170.876 285.913 181.048 288.099 189.3 293.79V293.79ZM140 305.59C136.191 311.098 134.102 317.613 133.995 324.309C133.889 331.006 135.771 337.583 139.404 343.21C143.036 348.837 148.255 353.26 154.401 355.92C160.548 358.581 167.345 359.358 173.933 358.155C180.522 356.952 186.605 353.823 191.415 349.162C196.224 344.501 199.544 338.519 200.953 331.972C202.362 325.424 201.798 318.606 199.333 312.38C196.867 306.153 192.61 300.797 187.1 296.99C179.713 291.888 170.602 289.928 161.77 291.541C152.938 293.154 145.108 298.207 140 305.59Z" stroke="#001F2C" stroke-width="0.5" stroke-miterlimit="10"/>
<path d="M189.3 289.79C195.452 294.042 200.204 300.023 202.956 306.976C205.709 313.93 206.337 321.543 204.763 328.854C203.188 336.164 199.481 342.844 194.11 348.047C188.739 353.251 181.946 356.745 174.589 358.088C167.232 359.43 159.643 358.561 152.78 355.591C145.917 352.62 140.089 347.68 136.034 341.397C131.978 335.114 129.877 327.77 129.995 320.292C130.114 312.815 132.447 305.541 136.7 299.39C142.409 291.151 151.154 285.513 161.015 283.713C170.876 281.913 181.048 284.099 189.3 289.79V289.79ZM140 301.59C136.191 307.098 134.102 313.613 133.995 320.309C133.889 327.006 135.771 333.583 139.404 339.21C143.036 344.837 148.255 349.26 154.401 351.92C160.548 354.581 167.345 355.358 173.933 354.155C180.522 352.952 186.605 349.823 191.415 345.162C196.224 340.501 199.544 334.519 200.953 327.972C202.362 321.424 201.798 314.606 199.333 308.38C196.867 302.153 192.61 296.797 187.1 292.99C179.713 287.888 170.602 285.928 161.77 287.541C152.938 289.154 145.108 294.207 140 301.59V301.59Z" fill="#00C954"/>
<path d="M189.3 289.79C195.452 294.042 200.204 300.023 202.956 306.976C205.709 313.93 206.337 321.543 204.763 328.854C203.188 336.164 199.481 342.844 194.11 348.047C188.739 353.251 181.946 356.745 174.589 358.088C167.232 359.43 159.643 358.561 152.78 355.591C145.917 352.62 140.089 347.68 136.034 341.397C131.978 335.114 129.877 327.77 129.995 320.292C130.114 312.815 132.447 305.541 136.7 299.39C142.409 291.151 151.154 285.513 161.015 283.713C170.876 281.913 181.048 284.099 189.3 289.79V289.79ZM140 301.59C136.191 307.098 134.102 313.613 133.995 320.309C133.889 327.006 135.771 333.583 139.404 339.21C143.036 344.837 148.255 349.26 154.401 351.92C160.548 354.581 167.345 355.358 173.933 354.155C180.522 352.952 186.605 349.823 191.415 345.162C196.224 340.501 199.544 334.519 200.953 327.972C202.362 321.424 201.798 314.606 199.333 308.38C196.867 302.153 192.61 296.797 187.1 292.99C179.713 287.888 170.602 285.928 161.77 287.541C152.938 289.154 145.108 294.207 140 301.59V301.59Z" stroke="#00222F" stroke-width="0.5" stroke-miterlimit="10"/>
<path d="M148.2 353.29L142.5 361.59C142.5 361.59 145.6 363.29 147.3 362.29L152.1 355.39L148.2 353.29Z" fill="#001F2C"/>
<path d="M141.2 360.69L94.3999 431.29C94.3999 431.29 98.1999 434.09 100.1 432.49L146.5 362.49C146.4 362.49 144.3 362.79 141.2 360.69Z" fill="#001F2C"/>
<path d="M165.6 114.69H387" stroke="#001E2B" stroke-width="0.5" stroke-miterlimit="10" stroke-dasharray="2 2"/>
<path d="M165.6 165.49H387" stroke="#001E2B" stroke-width="0.5" stroke-miterlimit="10" stroke-dasharray="2 2"/>
<path d="M165.6 266.99H439" stroke="#001E2B" stroke-width="0.5" stroke-miterlimit="10" stroke-dasharray="2 2"/>
<path d="M274 317.79H205.6" stroke="#001E2B" stroke-miterlimit="10" stroke-dasharray="2 2"/>
<path d="M201.3 316.09H165.6" stroke="#001E2B" stroke-miterlimit="10" stroke-dasharray="2 2"/>
<path d="M439 317.79H309.9" stroke="#001E2B" stroke-miterlimit="10" stroke-dasharray="2 2"/>
<path d="M330.6 216.79H437.6" stroke="#001E2B" stroke-width="0.5" stroke-miterlimit="10" stroke-dasharray="2 2"/>
<path d="M165.6 216.79H294.7" stroke="#001E2B" stroke-width="0.5" stroke-miterlimit="10" stroke-dasharray="2 2"/>
<path d="M383.4 368.49H165.6" stroke="#001E2B" stroke-width="0.5" stroke-miterlimit="10" stroke-dasharray="2 2"/>
<path d="M466 151.49L324.3 186.79C323.972 186.87 323.631 186.884 323.297 186.832C322.963 186.78 322.642 186.662 322.354 186.486C322.066 186.309 321.816 186.077 321.617 185.803C321.419 185.529 321.278 185.219 321.2 184.89L293 72.2897C292.92 71.9613 292.905 71.6203 292.957 71.2863C293.01 70.9523 293.127 70.632 293.304 70.3438C293.481 70.0556 293.713 69.8052 293.987 69.6071C294.261 69.409 294.571 69.2672 294.9 69.1897L436.6 33.8897C436.928 33.8094 437.269 33.7949 437.603 33.8471C437.937 33.8993 438.258 34.0171 438.546 34.1937C438.834 34.3704 439.085 34.6024 439.283 34.8763C439.481 35.1502 439.623 35.4607 439.7 35.7897L467.8 148.49C467.884 148.805 467.903 149.134 467.857 149.457C467.812 149.78 467.701 150.09 467.534 150.37C467.366 150.65 467.144 150.893 466.88 151.085C466.617 151.277 466.318 151.415 466 151.49V151.49Z" fill="#001E2B" stroke="#001E2B" stroke-width="0.5" stroke-miterlimit="10"/>
<path d="M463.6 142.09L321.9 177.39C321.572 177.47 321.231 177.485 320.897 177.432C320.563 177.38 320.242 177.262 319.954 177.086C319.666 176.909 319.416 176.677 319.217 176.403C319.019 176.129 318.877 175.819 318.8 175.49L290.7 62.8898C290.62 62.5614 290.605 62.2204 290.657 61.8864C290.71 61.5524 290.827 61.2321 291.004 60.9439C291.181 60.6557 291.413 60.4053 291.687 60.2072C291.961 60.0091 292.271 59.8673 292.6 59.7898L434.3 24.4898C434.628 24.4095 434.969 24.395 435.303 24.4472C435.637 24.4994 435.958 24.6172 436.246 24.7938C436.534 24.9705 436.784 25.2025 436.983 25.4764C437.181 25.7503 437.323 26.0607 437.4 26.3898L465.5 139.09C465.635 139.739 465.513 140.415 465.158 140.975C464.803 141.535 464.245 141.935 463.6 142.09V142.09Z" fill="white" stroke="#001E2B" stroke-width="0.5" stroke-miterlimit="10"/>
<path d="M429.861 36.8367L302.165 68.6514L323.512 154.332L451.208 122.518L429.861 36.8367Z" fill="#00D2FF" stroke="#001E2B" stroke-width="0.5" stroke-miterlimit="10"/>
<path d="M355.3 79.0898L381.5 106.29L407.8 133.39L371.1 142.59L334.4 151.69L344.9 115.39L355.3 79.0898Z" stroke="#001E2B" stroke-width="0.5" stroke-miterlimit="10"/>
<path d="M368.8 107.99L373.8 98.2898L355.3 79.0898L346.8 108.69L355.1 115.09L361.2 102.09L368.8 107.99Z" fill="white" stroke="#001E2B" stroke-width="0.5" stroke-miterlimit="10"/>
<path d="M411.7 60.5898L390.9 95.1898C393.173 96.6235 395.71 97.5888 398.361 98.0292C401.013 98.4696 403.725 98.3762 406.34 97.7545C408.955 97.1327 411.419 95.9952 413.589 94.4085C415.758 92.8218 417.589 90.818 418.974 88.5145C420.358 86.211 421.269 83.6542 421.653 80.994C422.037 78.3338 421.885 75.6238 421.208 73.0229C420.53 70.422 419.34 67.9825 417.708 65.8476C416.075 63.7126 414.032 61.9251 411.7 60.5898V60.5898Z" fill="#A6FFEC" stroke="#001E2B" stroke-width="0.5" stroke-miterlimit="10"/>
<path d="M384 67.4896C381.243 72.0781 380.421 77.5738 381.715 82.7681C383.009 87.9625 386.313 92.4305 390.9 95.1896L411.7 60.5896C407.107 57.8486 401.617 57.0358 396.427 58.3285C391.238 59.6213 386.77 62.9146 384 67.4896V67.4896Z" fill="white" stroke="#001E2B" stroke-width="0.5" stroke-miterlimit="10"/>
</g>
</g>
<defs>
<clipPath id="clip0_15688_50524">
<rect width="605" height="485" fill="white"/>
</clipPath>
<clipPath id="clip1_15688_50524">
<rect width="518.6" height="485.49" fill="white" transform="translate(43)"/>
</clipPath>
</defs>
</svg>
