<svg width="696" height="468" viewBox="0 0 696 468" fill="none" xmlns="http://www.w3.org/2000/svg">
<path d="M178.75 71.3337C178.75 90.2517 171.23 108.397 157.845 121.774C144.459 135.151 126.305 142.666 107.375 142.666C88.4449 142.666 70.2909 150.182 56.9054 163.56C43.5199 176.937 36 195.081 36 214V356.666C36 375.585 43.5199 393.729 56.9054 407.107C70.2909 420.485 88.4449 428 107.375 428C126.305 428 144.459 420.485 157.845 407.107C171.23 393.729 178.75 375.585 178.75 356.666C178.75 337.748 186.27 319.603 199.655 306.226C213.041 292.849 231.195 285.334 250.125 285.334H392.875C411.805 285.334 429.959 277.818 443.345 264.44C456.73 251.063 464.25 232.919 464.25 214C464.25 195.081 471.77 176.937 485.155 163.56C498.541 150.182 516.695 142.666 535.625 142.666C544.998 142.666 554.28 140.822 562.939 137.237C571.599 133.652 579.467 128.398 586.095 121.774C592.723 115.15 597.98 107.286 601.567 98.6319C605.154 89.9771 607 80.7012 607 71.3337C607 61.9657 605.154 52.6898 601.567 44.0352C597.98 35.3807 592.723 27.517 586.095 20.893C579.467 14.2692 571.599 9.01481 562.939 5.42997C554.28 1.84514 544.998 0 535.625 0H250.105C231.178 0.00540515 213.029 7.5232 199.648 20.9003C186.267 34.2773 178.75 52.4181 178.75 71.3337Z" fill="#F9EBFF"/>
<mask id="mask0_1799_743" style="mask-type:luminance" maskUnits="userSpaceOnUse" x="96" y="24" width="504" height="420">
<path d="M599.548 24H96V444H599.548V24Z" fill="white"/>
</mask>
<g mask="url(#mask0_1799_743)">
<path d="M244.763 382.715V403.437C244.763 425.528 288.779 443.435 343.07 443.435C397.361 443.435 441.377 425.528 441.377 403.437V382.715H244.763Z" fill="black" stroke="black" stroke-linecap="round" stroke-linejoin="round"/>
<path d="M244.763 316.308V393.556C244.763 415.647 288.779 433.554 343.07 433.554C397.361 433.554 441.377 415.647 441.377 393.556V316.308C441.377 294.218 397.361 276.311 343.07 276.311C288.779 276.311 244.763 294.218 244.763 316.308Z" fill="#00ED64"/>
<path d="M441.366 316.306V393.556C441.366 415.645 397.351 433.553 343.059 433.553C288.767 433.553 244.752 415.645 244.752 393.556V316.306" stroke="black" stroke-linecap="round" stroke-linejoin="round"/>
<path d="M441.366 355.774C441.366 377.865 397.351 395.772 343.059 395.772C288.767 395.772 244.752 377.865 244.752 355.774" stroke="black" stroke-linecap="round" stroke-linejoin="round"/>
<path d="M422.235 292.588V417.262C434.261 410.627 441.367 402.43 441.367 393.544V316.295C441.367 307.421 434.261 299.214 422.235 292.577V292.588Z" fill="black" stroke="black" stroke-linecap="round" stroke-linejoin="round"/>
<path d="M343.059 356.306C397.352 356.306 441.366 338.398 441.366 316.308C441.366 294.218 397.352 276.311 343.059 276.311C288.765 276.311 244.752 294.218 244.752 316.308C244.752 338.398 288.765 356.306 343.059 356.306Z" fill="white" stroke="black" stroke-linecap="round" stroke-linejoin="round"/>
<path d="M324.864 304.967V319.269C324.864 323.361 333.009 326.674 343.059 326.674C353.11 326.674 361.254 323.361 361.254 319.269V304.967C361.254 300.876 353.11 297.563 343.059 297.563C333.009 297.563 324.864 300.876 324.864 304.967Z" fill="#B3FD34" stroke="black" stroke-linecap="round" stroke-linejoin="round"/>
<path d="M351.813 298.478L348.339 326.357C355.818 325.441 361.255 322.615 361.255 319.269V304.967C361.255 302.164 357.442 299.733 351.802 298.478H351.813Z" fill="black" stroke="black" stroke-linecap="round" stroke-linejoin="round"/>
<path d="M441.366 202.633C441.366 180.543 397.351 162.635 343.059 162.635C288.767 162.635 244.752 180.543 244.752 202.633" stroke="black" stroke-linecap="round" stroke-linejoin="round"/>
<path d="M244.763 195.828V273.076C244.763 295.167 288.779 313.074 343.07 313.074C397.361 313.074 441.377 295.167 441.377 273.076V195.828C441.377 173.738 397.361 155.831 343.07 155.831C288.779 155.831 244.763 173.738 244.763 195.828Z" fill="#00ED64"/>
<path d="M422.235 172.122V296.795C434.261 290.159 441.367 281.963 441.367 273.077V195.828C441.367 186.954 434.261 178.746 422.235 172.111V172.122Z" fill="black" stroke="black" stroke-linecap="round" stroke-linejoin="round"/>
<path d="M343.059 235.826C397.352 235.826 441.366 217.918 441.366 195.828C441.366 173.738 397.352 155.831 343.059 155.831C288.765 155.831 244.752 173.738 244.752 195.828C244.752 217.918 288.765 235.826 343.059 235.826Z" fill="white" stroke="black" stroke-linecap="round" stroke-linejoin="round"/>
<path d="M441.366 195.829V273.078C441.366 295.168 397.351 313.075 343.059 313.075C288.767 313.075 244.752 295.168 244.752 273.078V195.829" stroke="black" stroke-linecap="round" stroke-linejoin="round"/>
<path d="M324.864 184.499V198.8C324.864 202.893 333.009 206.206 343.059 206.206C353.11 206.206 361.254 202.893 361.254 198.8V184.499C361.254 180.407 353.11 177.095 343.059 177.095C333.009 177.095 324.864 180.407 324.864 184.499Z" fill="#B3FD34" stroke="black" stroke-linecap="round" stroke-linejoin="round"/>
<path d="M351.813 178.011L348.339 205.89C355.818 204.975 361.255 202.148 361.255 198.801V184.501C361.255 181.696 357.442 179.267 351.802 178.011H351.813Z" fill="black" stroke="black" stroke-linecap="round" stroke-linejoin="round"/>
<path d="M244.763 75.3587V152.607C244.763 174.698 288.779 192.605 343.07 192.605C397.361 192.605 441.377 174.698 441.377 152.607V75.3587C441.377 53.2683 397.361 35.3608 343.07 35.3608C288.779 35.3608 244.763 53.2683 244.763 75.3587Z" fill="#00ED64"/>
<path d="M441.366 75.3587C441.366 53.2683 397.351 35.3608 343.059 35.3608C288.767 35.3608 244.752 53.2683 244.752 75.3587" stroke="black" stroke-linecap="round" stroke-linejoin="round"/>
<path d="M441.366 75.3599V152.608C441.366 174.699 397.351 192.606 343.059 192.606C288.767 192.606 244.752 174.699 244.752 152.608V75.3599" stroke="black" stroke-linecap="round" stroke-linejoin="round"/>
<path d="M441.366 113.978C441.366 136.069 397.351 153.976 343.059 153.976C288.767 153.976 244.752 136.069 244.752 113.978" stroke="black" stroke-linecap="round" stroke-linejoin="round"/>
<path d="M441.366 234.458C441.366 256.549 397.351 274.457 343.059 274.457C288.767 274.457 244.752 256.549 244.752 234.458" stroke="black" stroke-linecap="round" stroke-linejoin="round"/>
<path d="M422.235 51.6529V176.327C434.261 169.691 441.367 161.495 441.367 152.608V75.36C441.367 66.4853 434.261 58.2778 422.235 51.6416V51.6529Z" fill="black" stroke="black" stroke-linecap="round" stroke-linejoin="round"/>
<path d="M343.059 115.357C397.352 115.357 441.366 97.4491 441.366 75.3587C441.366 53.2685 397.352 35.3608 343.059 35.3608C288.765 35.3608 244.752 53.2685 244.752 75.3587C244.752 97.4491 288.765 115.357 343.059 115.357Z" fill="white" stroke="black" stroke-linecap="round" stroke-linejoin="round"/>
<path d="M491.778 234.097L401.378 276.356V413.499L515.782 360.037V246.94L491.778 234.097Z" fill="white" stroke="black" stroke-linecap="round" stroke-linejoin="round"/>
<path d="M498.929 349.86L417.722 387.813C416.526 388.366 415.557 387.858 415.557 386.659C415.557 385.461 416.526 384.036 417.722 383.472L498.929 345.519C500.125 344.966 501.094 345.474 501.094 346.673C501.094 347.871 500.125 349.296 498.929 349.86Z" fill="#00D2FF" stroke="black" stroke-linecap="round" stroke-linejoin="round"/>
<path d="M498.929 311.91L417.722 349.861C416.526 350.416 415.557 349.907 415.557 348.709C415.557 347.511 416.526 346.086 417.722 345.52L498.929 307.569C500.125 307.015 501.094 307.524 501.094 308.722C501.094 309.921 500.125 311.345 498.929 311.91Z" fill="#00D2FF" stroke="black" stroke-linecap="round" stroke-linejoin="round"/>
<path d="M498.929 273.971L417.722 311.923C416.526 312.476 415.557 311.968 415.557 310.769C415.557 309.571 416.526 308.146 417.722 307.582L498.929 269.629C500.125 269.076 501.094 269.584 501.094 270.783C501.094 271.981 500.125 273.406 498.929 273.971Z" fill="#00D2FF" stroke="black" stroke-linecap="round" stroke-linejoin="round"/>
<path d="M442.438 357.289L417.712 368.844C416.516 369.398 415.545 368.889 415.545 367.691C415.545 366.492 416.516 365.068 417.712 364.502L442.438 352.948C443.633 352.395 444.603 352.903 444.603 354.102C444.603 355.3 443.633 356.725 442.438 357.289Z" fill="#00D2FF" stroke="black" stroke-linecap="round" stroke-linejoin="round"/>
<path d="M498.929 330.892L453.402 352.168C452.207 352.722 451.237 352.213 451.237 351.015C451.237 349.817 452.207 348.392 453.402 347.827L498.929 326.551C500.125 325.997 501.095 326.505 501.095 327.704C501.095 328.902 500.125 330.327 498.929 330.892Z" fill="#00D2FF" stroke="black" stroke-linecap="round" stroke-linejoin="round"/>
<path d="M442.438 281.387L417.712 292.94C416.516 293.495 415.545 292.985 415.545 291.787C415.545 290.59 416.516 289.165 417.712 288.599L442.438 277.046C443.633 276.491 444.603 277 444.603 278.198C444.603 279.397 443.633 280.821 442.438 281.387Z" fill="#00D2FF" stroke="black" stroke-linecap="round" stroke-linejoin="round"/>
<path d="M498.929 254.989L453.402 276.265C452.207 276.82 451.237 276.311 451.237 275.113C451.237 273.914 452.207 272.489 453.402 271.924L498.929 250.648C500.125 250.093 501.095 250.603 501.095 251.8C501.095 252.999 500.125 254.423 498.929 254.989Z" fill="#00D2FF" stroke="black" stroke-linecap="round" stroke-linejoin="round"/>
<path d="M474.203 300.152L498.929 288.598C500.125 288.045 501.094 288.553 501.094 289.752C501.094 290.95 500.125 292.374 498.929 292.939L474.203 304.494C473.007 305.047 472.038 304.539 472.038 303.34C472.038 302.142 473.007 300.717 474.203 300.152Z" fill="#00D2FF" stroke="black" stroke-linecap="round" stroke-linejoin="round"/>
<path d="M417.722 326.55L463.249 305.274C464.445 304.719 465.416 305.228 465.416 306.426C465.416 307.625 464.445 309.049 463.249 309.615L417.722 330.891C416.526 331.445 415.557 330.937 415.557 329.738C415.557 328.54 416.526 327.115 417.722 326.55Z" fill="#00D2FF" stroke="black" stroke-linecap="round" stroke-linejoin="round"/>
<path d="M494.597 256.831L491.618 262.847L515.781 246.94L494.597 256.831Z" fill="black" stroke="black" stroke-linecap="round" stroke-linejoin="round"/>
<path d="M491.777 234.097V258.155L515.782 246.94L491.777 234.097Z" fill="white" stroke="black" stroke-linecap="round" stroke-linejoin="round"/>
<path d="M291.249 189.858V271.968C291.249 283.093 282.248 287.908 271.148 282.719L123.975 213.938C112.875 208.749 103.874 195.523 103.874 184.398V102.288C103.874 91.1641 112.875 86.3477 123.975 91.5367L271.148 160.317C282.248 165.506 291.249 178.734 291.249 189.858Z" fill="#FFF5F4" stroke="black" stroke-linecap="round" stroke-linejoin="round"/>
<path d="M197.566 248.33V125.928" stroke="black" stroke-linecap="square" stroke-linejoin="round" stroke-dasharray="2 2"/>
<path d="M166.332 233.734V111.333" stroke="black" stroke-linecap="square" stroke-linejoin="round" stroke-dasharray="2 2"/>
<path d="M228.79 262.924V140.522" stroke="black" stroke-linecap="square" stroke-linejoin="round" stroke-dasharray="2 2"/>
<path d="M260.024 277.519V155.118" stroke="black" stroke-linecap="square" stroke-linejoin="round" stroke-dasharray="2 2"/>
<path d="M135.109 219.141V96.7388" stroke="black" stroke-linecap="square" stroke-linejoin="round" stroke-dasharray="2 2"/>
<path d="M103.874 153.614L135.109 193.996L166.332 168.796L197.567 213.701L228.79 174.37L260.026 215.634L291.249 210.886" stroke="black" stroke-linecap="round" stroke-linejoin="round"/>
<path d="M109.608 160.851C112.12 158.852 111.593 153.992 108.428 149.997C105.263 146.001 100.662 144.383 98.1483 146.383C95.6351 148.381 96.1635 153.24 99.3282 157.236C102.492 161.232 107.095 162.851 109.608 160.851Z" fill="#00D2FF" stroke="black" stroke-linecap="round" stroke-linejoin="round"/>
<path d="M107.315 157.954C108.823 156.755 108.506 153.84 106.609 151.444C104.711 149.048 101.95 148.078 100.443 149.277C98.9345 150.477 99.2507 153.391 101.149 155.788C103.046 158.184 105.807 159.155 107.315 157.954Z" fill="#0D427C"/>
<path d="M140.839 201.226C143.352 199.226 142.823 194.367 139.659 190.371C136.495 186.375 131.892 184.757 129.379 186.756C126.867 188.755 127.394 193.615 130.559 197.61C133.723 201.606 138.325 203.224 140.839 201.226Z" fill="#00D2FF" stroke="black" stroke-linecap="round" stroke-linejoin="round"/>
<path d="M138.544 198.328C140.052 197.129 139.735 194.214 137.839 191.817C135.941 189.421 133.179 188.451 131.672 189.65C130.164 190.849 130.48 193.764 132.378 196.161C134.275 198.557 137.037 199.527 138.544 198.328Z" fill="#0D427C"/>
<path d="M172.06 176.792C174.574 174.792 174.045 169.933 170.882 165.937C167.717 161.943 163.114 160.324 160.602 162.323C158.089 164.322 158.616 169.182 161.781 173.177C164.945 177.172 169.547 178.791 172.06 176.792Z" fill="#00D2FF" stroke="black" stroke-linecap="round" stroke-linejoin="round"/>
<path d="M169.768 173.895C171.276 172.696 170.96 169.781 169.062 167.385C167.164 164.988 164.404 164.018 162.895 165.217C161.388 166.417 161.704 169.332 163.602 171.728C165.5 174.124 168.26 175.095 169.768 173.895Z" fill="#0D427C"/>
<path d="M203.301 219.283C205.814 217.283 205.286 212.424 202.121 208.428C198.958 204.433 194.355 202.815 191.843 204.814C189.329 206.813 189.857 211.672 193.021 215.668C196.186 219.663 200.788 221.281 203.301 219.283Z" fill="#00D2FF" stroke="black" stroke-linecap="round" stroke-linejoin="round"/>
<path d="M201.007 216.388C202.515 215.189 202.199 212.274 200.301 209.878C198.403 207.481 195.643 206.511 194.134 207.71C192.627 208.909 192.943 211.825 194.841 214.221C196.738 216.617 199.5 217.588 201.007 216.388Z" fill="#0D427C"/>
<path d="M234.528 181.599C237.041 179.6 236.513 174.74 233.349 170.745C230.184 166.749 225.583 165.131 223.069 167.131C220.556 169.129 221.084 173.988 224.248 177.984C227.413 181.98 232.015 183.599 234.528 181.599Z" fill="#00D2FF" stroke="black" stroke-linecap="round" stroke-linejoin="round"/>
<path d="M232.234 178.704C233.743 177.505 233.427 174.59 231.529 172.194C229.631 169.798 226.87 168.828 225.362 170.027C223.855 171.227 224.171 174.141 226.069 176.538C227.967 178.934 230.727 179.905 232.234 178.704Z" fill="#0D427C"/>
<path d="M265.751 222.857C268.264 220.858 267.737 215.999 264.572 212.003C261.408 208.007 256.806 206.389 254.292 208.389C251.779 210.387 252.308 215.247 255.472 219.242C258.636 223.238 263.239 224.856 265.751 222.857Z" fill="#00D2FF" stroke="black" stroke-linecap="round" stroke-linejoin="round"/>
<path d="M263.459 219.963C264.966 218.764 264.65 215.849 262.752 213.453C260.854 211.056 258.094 210.086 256.586 211.285C255.078 212.484 255.394 215.399 257.292 217.796C259.19 220.192 261.951 221.163 263.459 219.963Z" fill="#0D427C"/>
<path d="M296.976 218.112C299.489 216.113 298.961 211.253 295.796 207.258C292.632 203.262 288.029 201.644 285.516 203.643C283.004 205.642 283.531 210.501 286.696 214.497C289.861 218.493 294.462 220.111 296.976 218.112Z" fill="#00D2FF" stroke="black" stroke-linecap="round" stroke-linejoin="round"/>
<path d="M294.682 215.215C296.189 214.016 295.873 211.101 293.975 208.705C292.078 206.308 289.316 205.338 287.809 206.537C286.301 207.737 286.617 210.652 288.515 213.049C290.413 215.444 293.173 216.414 294.682 215.215Z" fill="#0D427C"/>
<path d="M175.706 347.509C175.706 347.509 173.901 349.41 169.141 344.864C164.381 340.331 166.186 338.432 166.186 338.432L195.086 308.202C195.086 308.202 197.297 306.913 201.538 310.96C205.779 315.008 204.606 317.28 204.606 317.28L175.706 347.509Z" fill="#00D2FF" stroke="black" stroke-linecap="round" stroke-linejoin="round"/>
<path d="M166.186 338.443L195.086 308.212C195.086 308.212 197.297 306.924 201.538 310.972C205.373 314.634 204.787 316.838 204.629 317.235C200.398 313.21 198.199 314.499 198.199 314.499L169.299 344.729C169.299 344.729 169.243 344.785 169.175 344.909L169.141 344.876C164.381 340.342 166.186 338.443 166.186 338.443Z" fill="black"/>
<path d="M203.838 319.247C203.838 319.247 201.345 320.456 196.744 316.194C192.142 311.932 193.145 309.354 193.145 309.354L200.951 300.886C200.951 300.886 202.034 302.74 205.87 306.29C209.705 309.841 211.633 310.779 211.633 310.779L203.827 319.247H203.838Z" fill="#00D2FF" stroke="black" stroke-linecap="round" stroke-linejoin="round"/>
<path d="M268.632 309.468C251.633 327.918 222.925 329.049 204.527 312.012C186.118 294.975 184.99 266.203 201.989 247.764C218.989 229.314 247.696 228.184 266.094 245.221C284.504 262.258 285.632 291.029 268.632 309.468ZM262.868 248.714C246.388 233.463 220.691 234.48 205.474 250.987C190.258 267.503 191.273 293.256 207.742 308.507C224.223 323.758 249.918 322.74 265.135 306.235C280.353 289.718 279.338 263.965 262.868 248.714Z" fill="black" stroke="black" stroke-linecap="round" stroke-linejoin="round"/>
<path d="M269.67 305.161C252.671 323.611 223.963 324.741 205.564 307.704C187.156 290.668 186.028 261.896 203.026 243.457C220.026 225.007 248.734 223.877 267.132 240.914C285.542 257.95 286.67 286.722 269.67 305.161ZM263.906 244.407C247.426 229.156 221.729 230.174 206.512 246.679C191.295 263.197 192.311 288.95 208.78 304.2C225.26 319.451 250.956 318.433 266.173 301.928C281.39 285.41 280.375 259.657 263.906 244.407Z" fill="#00D2FF" stroke="black" stroke-linecap="round" stroke-linejoin="round"/>
<path d="M269.67 305.161C252.671 323.611 223.963 324.741 205.564 307.704C187.156 290.668 186.028 261.896 203.026 243.457C220.026 225.007 248.734 223.877 267.132 240.914C285.542 257.95 286.67 286.722 269.67 305.161ZM263.906 244.407C247.426 229.156 221.729 230.174 206.512 246.679C191.295 263.197 192.311 288.95 208.78 304.2C225.26 319.451 250.956 318.433 266.173 301.928C281.39 285.41 280.375 259.657 263.906 244.407Z" fill="#00D2FF" stroke="black" stroke-linecap="round" stroke-linejoin="round"/>
<path d="M203.398 305.838L195.187 314.712C195.187 314.712 192.378 311.478 193.1 309.297L199.969 301.869L203.398 305.838Z" fill="black"/>
<path d="M570.456 190.119L432.06 125.442C416.369 118.105 403.532 99.2476 403.532 83.5224C403.532 67.7966 416.369 60.9343 432.06 68.2602L570.456 132.937C586.148 140.274 598.984 159.131 598.984 174.857C598.984 190.583 586.148 197.445 570.456 190.119Z" fill="white" stroke="black" stroke-linecap="round" stroke-linejoin="round"/>
<path d="M423.578 99.3155L439.573 100.367L423.578 86.4276V79.2939L449.477 102.243V107.749L423.578 106.46V99.3042V99.3155Z" fill="#00D2FF" stroke="black" stroke-linecap="round" stroke-linejoin="round"/>
<path d="M423.578 99.3155L439.573 100.367L423.578 86.4276V79.2939L449.477 102.243V107.749L423.578 106.46V99.3042V99.3155Z" fill="#00D2FF" stroke="black" stroke-linecap="round" stroke-linejoin="round"/>
<path d="M458.152 109.036L577.417 164.771" stroke="black" stroke-linecap="square" stroke-linejoin="round" stroke-dasharray="2 2"/>
<path d="M277.026 56.9199L260.883 52.5901L244.741 48.2488L256.552 36.4123L268.373 24.5645L272.694 40.7422L277.026 56.9199Z" fill="white" stroke="black" stroke-linecap="round" stroke-linejoin="round"/>
<path d="M263.76 43.625L268.373 24.5645L244.741 48.2488L263.76 43.625Z" fill="black"/>
<path d="M263.759 43.626L277.024 56.9209" stroke="black" stroke-linecap="round" stroke-linejoin="round"/>
<path d="M535.995 233.768H553.784L562.685 218.325L553.784 202.871H535.995L527.095 218.325L535.995 233.768Z" fill="white" stroke="black" stroke-linecap="round" stroke-linejoin="round"/>
<path d="M553.785 202.871H535.996L544.896 218.325H562.685L553.785 202.871Z" fill="black" stroke="black" stroke-linecap="round" stroke-linejoin="round"/>
<path d="M535.996 233.769L544.896 218.326" stroke="black" stroke-linecap="round" stroke-linejoin="round"/>
</g>
</svg>
